<svg xmlns="http://www.w3.org/2000/svg" width="392" height="185" viewBox="0 0 392 185"><style type="text/css">.st0{fill:#FFFFFF;} .st1{opacity:0.4;fill:url(#SVGID_1_);enable-background:new ;}</style><path class="st0" d="M15.1 9.7h2.2l3.4 8.7V9.7h1.8v11.6h-2.3l-3.4-8.9v8.9H15V9.7h.1zM26.9 9.7h6.3v1.6h-4.4v3.2H33v1.6h-4.2v3.7h4.6v1.6H27l-.1-11.7zM36.3 9.7h1.9l1.5 9 1.5-9h2l1.6 9.1 1.5-9.1h1.9L46 21.3h-2.2l-1.5-8.8-1.5 8.8h-2.2L36.3 9.7zM58.7 17.2v.2c0 2.1-.9 4.1-3.6 4.1-2.9 0-3.8-1.9-3.8-6s.9-6 3.9-6c3.3 0 3.5 2.4 3.5 3.6v.2h-1.9v-.2c0-1.1-.3-2.3-1.7-2.3s-2 .8-2 4.6c0 3.7.6 4.7 2 4.7 1.6 0 1.7-1.7 1.7-2.8v-.1h1.9zM64.7 9.7h2.4l3.1 11.6h-1.9l-.7-2.8h-3.4l-.9 2.8h-1.9l3.3-11.6zm2.5 7.3l-1.3-5.7-1.5 5.7h2.8zM74.7 17.7v.3c0 1.4.6 2.1 1.9 2.1 1.2 0 1.8-.8 1.8-1.7 0-1.2-.6-1.8-1.7-2.1l-1.3-.4c-1.7-.7-2.4-1.5-2.4-3.2 0-2.1 1.5-3.3 3.6-3.3 3 0 3.3 1.9 3.3 3.1v.3H78v-.2c0-1.1-.5-1.7-1.6-1.7-.8 0-1.6.4-1.6 1.7 0 1 .5 1.5 1.7 2l1.3.5c1.6.6 2.4 1.5 2.4 3.1 0 2.5-1.5 3.5-3.8 3.5-2.9 0-3.5-1.9-3.5-3.5v-.3h1.8v-.2zM85.8 11.3H83V9.7h7.4v1.6h-2.7v10.1h-1.9V11.3zM93.8 9.7h1.9v10.1h4.5v1.6h-6.4V9.7zM103.8 9.7h6.3v1.6h-4.4v3.2h4.2v1.6h-4.2v3.7h4.6v1.6h-6.4l-.1-11.7zM.2 29.7h6.3v1.6H2.2v3.2h4.1V36H2.2v3.7h4.6v1.6H.2V29.7zM12.8 35.4L10 29.7h2l1.9 3.9 1.8-3.9h2l-2.8 5.7 3 5.9h-2.1l-2-4.2-2.1 4.2h-2l3.1-5.9zM21.2 29.7h1.9v4.7h3.4v-4.7h1.9v11.6h-1.9v-5.4h-3.4v5.4h-1.9V29.7zM32.8 29.7h1.9v11.6h-1.9V29.7zM39 29.7h3.8c1.7 0 3.1.8 3.1 2.8 0 1.4-.6 2.3-1.7 2.6 1.3.2 2.1 1 2.1 3s-1.4 3.2-3.6 3.2H39V29.7zm3.3 4.9c1.1 0 1.7-.7 1.7-1.8 0-1.4-.8-1.7-1.9-1.7h-1.3v3.5h1.5zm.5 5.3c1.1 0 1.7-.7 1.7-2s-.7-2-1.8-2H41v4h1.8zM50.2 29.7h1.9v11.6h-1.9V29.7zM58.3 31.3h-2.8v-1.6H63v1.6h-2.7v10.1h-1.9c-.1-.2-.1-10.1-.1-10.1zM66.4 29.7h1.8v11.6h-1.9l.1-11.6zM72.1 35.5c0-4.1 1.2-6 3.8-6s3.8 1.9 3.8 6-1.2 6-3.8 6-3.8-1.8-3.8-6zm5.7 0c0-3.9-.9-4.6-2-4.6s-2 .7-2 4.6c0 4 .9 4.7 2 4.7s2-.8 2-4.7zM83.9 29.7h2.3l3.4 8.7v-8.7h1.8v11.6h-2.3l-3.4-8.9v8.9h-1.8V29.7zM108.2 37.8c.3-.5.5-1.1.5-1.8v-.2h1.5v.1c0 .6-.2 2-1 3.2l1.6 2.2h-2l-.7-1c-.8.7-1.6 1.2-2.9 1.2-2.7 0-3.4-2-3.4-3.2 0-1.3.6-2.3 1.6-3l.7-.6-.4-.7c-.4-.6-.7-1.3-.7-1.9 0-1.7 1.2-2.5 2.8-2.5.9 0 2.6.4 2.6 2.4 0 1.1-.6 1.8-1.4 2.4l-.6.4 1.8 3zm-3.8-1.7c-.7.5-1.1 1.2-1.1 2.1 0 1 .9 1.9 2 1.9.8 0 1.4-.4 1.8-.9l-2.4-3.3-.3.2zm1.3-2.6c.4-.4.8-.9.8-1.5 0-.7-.4-1.1-1.1-1.1-.5 0-1.1.2-1.1 1 0 .6.4 1.2.7 1.6l.3.3.4-.3zM15.1 57.2v.2c0 2.1-.9 4.1-3.6 4.1-2.9 0-3.8-1.9-3.8-6s.9-6 3.9-6c3.3 0 3.5 2.4 3.5 3.6v.2h-1.9V53c0-1.1-.3-2.3-1.7-2.3s-2 .8-2 4.6c0 3.7.6 4.7 2 4.7 1.6 0 1.7-1.7 1.7-2.8v-.1h1.9zM18.5 55.5c0-4.1 1.2-6 3.8-6s3.9 1.9 3.9 6-1.2 6-3.9 6-3.8-1.8-3.8-6zm6 0c0-3.9-.9-4.6-2-4.6s-2 .7-2 4.6c0 4 .9 4.7 2 4.7 1-.1 2-.8 2-4.7zM30.5 49.7h2.3l3.4 8.7v-8.7H38v11.6h-2.3l-3.4-8.9v8.9h-1.8V49.7zM41.2 49.7h2l2 9.3 2.1-9.3h2l-2.9 11.6H44l-2.8-11.6zM52.7 49.7H59v1.6h-4.4v3.2h4.2V56h-4.2v3.7h4.6v1.6h-6.4l-.1-11.6zM63 49.7h2.3l3.4 8.7v-8.7h1.8v11.6h-2.3l-3.4-8.9v8.9H63V49.7zM76.8 51.2H74v-1.6h7.4v1.6h-2.7v10.1h-1.9V51.2zM84.9 49.7h1.9v11.6h-1.9V49.7zM90.8 55.5c0-4.1 1.2-6 3.8-6 2.7 0 3.8 1.9 3.8 6s-1.2 6-3.8 6c-2.5 0-3.8-1.8-3.8-6zm5.9 0c0-3.9-.9-4.6-2-4.6s-2 .7-2 4.6c0 4 .9 4.7 2 4.7 1.1-.1 2-.8 2-4.7zM102.2 49.7h2.3l3.4 8.7v-8.7h1.8v11.6h-2.3l-3.4-8.9v8.9h-1.8V49.7zM56.8 77.1v.2c0 2.1-.9 4.1-3.6 4.1-2.9 0-3.8-1.9-3.8-6s.9-6 3.9-6c3.3 0 3.5 2.4 3.5 3.6v.2H55V73c0-1.1-.3-2.3-1.7-2.3s-2 .8-2 4.6c0 3.7.6 4.7 2 4.7 1.6 0 1.7-1.7 1.7-2.8V77h1.9c0-.1 0 .1-.1.1zM60.7 69.7H67v1.6h-4.4v3.2h4.2V76h-4.2v3.7h4.6v1.6h-6.4l-.1-11.6zM71.1 69.7h2.2l3.4 8.7v-8.7h1.8v11.6h-2.3l-3.4-8.9v8.9H71V69.7h.1zM84.3 71.2h-2.8v-1.6h7.4v1.6h-2.7v10.1h-1.9V71.2zM92.4 69.7h4.1c1.6 0 3 .8 3 3 0 1.5-.7 2.7-1.9 2.8 1.2.1 1.8.7 1.8 2.4 0 .8 0 1.7.1 2.4 0 .6.3.8.6 1H98c-.2-.2-.3-.6-.3-1v-2.2c0-1.3-.4-1.8-1.7-1.8h-1.5v5h-1.9l-.2-11.6zm3.4 5.1c1.2 0 1.9-.7 1.9-1.9s-.5-1.9-1.8-1.9h-1.6v3.8h1.5zM103.8 69.7h6.3v1.6h-4.4v3.2h4.2V76h-4.2v3.7h4.6v1.6h-6.4l-.1-11.6z"/><linearGradient id="SVGID_1_" gradientUnits="userSpaceOnUse" x1="302.03" y1="-661.518" x2="215.132" y2="-422.768" gradientTransform="matrix(1 0 0 -1 0 -444.013)"><stop offset="0" stop-opacity="0"/><stop offset="1"/></linearGradient><path class="st1" d="M275.9 24.6L271.5.2l7.6 10.2-3.2 14.2zM165.4 12.5l-9-12.3 9 34.8V12.5zM304.6.2l-13.7 46.6 14 49.9h-26.8l-4.9-24.8-5.6 24.8h-23.3l14-46.6-10.8-39.6L239.8.2v20H220v17.7h19v20h-19v18.9h20.1v20h-45.9V10.4L186.6.2v96.5h-23.7l-10.3-39 .3 39h-21.3l65.7 88.2h194.4v-68.1L304.6.2z"/><path class="st0" d="M162.9 96.7l-10.3-39 .3 39h-21.3V.2h24.8l9 34.8V.2h21.3v96.5h-23.8zM239.9.2v20h-19.8v17.7h19v20h-19v18.9h20.1v20h-45.9V.2h45.6zM291 46.8l14 49.9h-26.8l-4.9-24.8-5.6 24.8h-23.3l14-46.6L244.8.2h26.8l4.4 24.4L281.4.2h23.3L291 46.8zM309.5 85.7h12.2v11.1h-12.2z"/></svg>