<svg xmlns="http://www.w3.org/2000/svg" width="298.1" height="40" viewBox="0 0 298.1 40"><style type="text/css">.st0{fill:#FFFFFF;} .st1{font-family:&apos;Times-Roman&apos;;} .st2{font-size:16.7388px;}</style><path class="st0" d="M0 29.7c.6 0 .9-.2 1.1-.3.2-.2.3-.6.3-1.2v-7.4c0-.6-.1-1-.3-1.2-.2-.2-.6-.3-1.1-.3v-.4h5.4c1.4 0 2.5.2 3.3.7.7.5 1.1 1.3 1.1 2.4 0 .6-.1 1.1-.4 1.5s-.8.9-1.4 1.2c-.5.2-1 .3-1.5.4-.5 0-1.3.1-2.3.1v3.1c0 .6.1 1 .3 1.2.2.2.6.3 1.2.3v.4H0v-.5zm6.1-5.6c.5-.3.8-1.1.8-2.2 0-.8-.1-1.4-.4-1.8-.3-.5-.7-.7-1.5-.7-.3 0-.6 0-.7.1-.1.1-.2.2-.2.5v4.5c1 0 1.7-.2 2-.4zM9.9 29.7c.4 0 .7-.2 1-.5.2-.2.4-.7.7-1.4l3.7-9.2h.5l3.7 8.8c.4 1 .7 1.6.9 1.9.2.3.5.4.9.4v.4h-5.4v-.4c.5 0 .9-.1 1.1-.1.2-.1.3-.2.3-.5 0-.1 0-.3-.1-.6-.1-.2-.1-.3-.2-.6l-.4-1h-3.8c-.2.7-.4 1.1-.5 1.3-.1.4-.2.7-.2.9 0 .2.2.4.5.5.2.1.5.1.9.1v.4H9.9v-.4zm6.3-3.5l-1.6-3.9h-.1L13 26.2h3.2zM22.9 29.7c.6 0 1-.1 1.2-.3.2-.2.3-.6.3-1.2v-7.4c0-.6-.1-1.1-.4-1.3-.2-.1-.5-.2-1.1-.3v-.4h5.4c1.1 0 2 .1 2.7.4 1.3.5 2 1.3 2 2.6 0 .9-.4 1.6-1.1 2.1-.5.4-1.1.6-1.7.8l3.6 4.8.3.3c.1 0 .2.1.4.1v.4H31l-3.9-5.2v3.3c0 .6.1 1 .3 1.2.2.2.6.3 1.2.3v.4h-5.7v-.6zm6.6-5.8c.5-.3.7-1 .7-2 0-.6-.1-1.2-.3-1.5-.3-.6-.9-1-1.7-1-.4 0-.7.1-.9.2-.1.1-.2.3-.2.6v4.3c1.1-.2 1.9-.3 2.4-.6zM35.9 18.8H46v3.4h-.5c-.2-1.2-.6-2-1.4-2.5-.4-.2-1-.4-1.9-.4v8.8c0 .6.1 1 .3 1.2.2.2.7.3 1.3.3v.4h-6v-.4c.7 0 1.1-.1 1.3-.3.2-.2.3-.6.3-1.2v-8.8c-.8 0-1.4.1-1.9.4-.8.4-1.3 1.3-1.4 2.5h-.5l.3-3.4zM63.9 20.2c1.2 1.1 1.7 2.6 1.7 4.3 0 1.8-.6 3.2-1.7 4.3-1.1 1.1-2.5 1.6-4.2 1.6-1.8 0-3.2-.6-4.4-1.8-1.1-1.1-1.6-2.5-1.6-4.1 0-1.8.6-3.2 1.7-4.3 1.1-1.1 2.5-1.7 4.3-1.7 1.7.1 3.1.6 4.2 1.7zm-1.6 7.5c.3-.8.4-1.9.4-3.2 0-1.8-.3-3.1-.8-4-.5-.9-1.3-1.4-2.2-1.4-1.3 0-2.1.8-2.6 2.3-.2.8-.4 1.8-.4 3.1s.1 2.4.4 3.2c.5 1.5 1.3 2.2 2.6 2.2s2.1-.7 2.6-2.2zM67.7 29.7c.5 0 .8-.1 1-.2.3-.2.5-.5.5-1v-8.1c0-.5-.2-.8-.5-1-.2-.1-.5-.2-1-.2v-.4h9.5v3.4h-.4c-.2-1-.6-1.8-1-2.2-.5-.4-1.4-.6-2.7-.6-.5 0-.8.1-.9.2-.1.1-.2.3-.2.6v3.9c.9 0 1.5-.2 1.8-.6.3-.4.6-1 .7-1.9h.4v5.7h-.4c-.1-.9-.3-1.6-.7-2-.3-.4-1-.6-1.9-.6v3.9c0 .5.2.8.5 1 .3.1.8.2 1.4.2v.4h-6v-.5zM84 18.8h10.1v3.4h-.5c-.2-1.2-.6-2-1.4-2.5-.4-.2-1-.4-1.9-.4v8.8c0 .6.1 1 .3 1.2.2.2.7.3 1.3.3v.4h-6v-.4c.7 0 1.1-.1 1.3-.3.2-.2.3-.6.3-1.2v-8.8c-.8 0-1.4.1-1.9.4-.8.4-1.3 1.3-1.4 2.5H84v-3.4zM96.4 29.7c.4 0 .8-.1.9-.2.3-.2.5-.5.5-1v-8.1c0-.5-.1-.8-.4-1-.2-.1-.5-.2-1-.2v-.4h5.7v.4c-.5 0-.8.1-1 .2-.3.2-.5.5-.5 1v3.5h4v-3.5c0-.5-.1-.8-.4-1-.2-.1-.5-.2-1-.2v-.4h5.7v.4c-.5 0-.8.1-1 .2-.3.2-.4.5-.4 1v8.1c0 .5.2.8.5 1 .2.1.5.2 1 .2v.4h-6v-.4c.5 0 .8-.1 1-.2.3-.2.5-.5.5-1v-3.9h-4v3.9c0 .5.2.8.5 1 .2.1.5.2 1 .2v.4h-5.7v-.4zM110.7 30.1v-.4c.5 0 .8-.1 1-.2.3-.2.5-.5.5-1v-8.1c0-.5-.2-.8-.5-1-.2-.1-.5-.2-1-.2v-.4h9.6v3.4h-.4c-.2-1.1-.6-1.8-1.1-2.2-.5-.4-1.4-.6-2.8-.6-.5 0-.8.1-1 .2-.1.1-.2.3-.2.6v3.9c1 0 1.6-.2 1.9-.5.3-.4.6-1 .8-2h.4v5.7h-.4c-.1-1-.4-1.6-.7-2-.4-.4-1-.6-2-.6v4.1c0 .4.1.6.3.7.2.1.6.2 1.1.2 1.1 0 1.9-.2 2.6-.6.7-.4 1.3-1.2 1.8-2.3h.5l-.7 3.5h-9.7zM230 20.4c1.1-1.2 2.5-1.8 4.3-1.8.7 0 1.4.1 2.1.4.7.3 1.1.4 1.3.4.2 0 .3-.1.4-.2.1-.1.2-.3.3-.6h.5v3.9h-.4c-.4-.9-.8-1.5-1.2-2-.8-.9-1.7-1.4-2.7-1.4-1.1 0-1.9.5-2.4 1.4-.5.9-.7 2.3-.7 4 0 1.4.2 2.6.7 3.7.5 1.1 1.4 1.6 2.7 1.6.7 0 1.2-.1 1.4-.4.1-.2.2-.4.2-.8v-1.8c0-.5-.2-.8-.5-1-.2-.1-.6-.2-1.2-.2v-.4h5.7v.4c-.6 0-1 .1-1.1.3-.2.2-.3.6-.3 1.2v2.1c-.4.2-1 .5-1.8.7-.8.2-1.8.3-2.8.3-1.9 0-3.3-.6-4.5-1.8-1-1.1-1.6-2.5-1.6-4.1 0-1.4.5-2.8 1.6-3.9zM242.4 29.7c.6 0 1-.1 1.2-.3.2-.2.3-.6.3-1.2v-7.4c0-.6-.1-1.1-.4-1.3-.2-.1-.5-.2-1.1-.3v-.4h5.4c1.1 0 2 .1 2.7.4 1.3.5 2 1.3 2 2.6 0 .9-.4 1.6-1.1 2.1-.5.4-1.1.6-1.7.8l3.6 4.8.3.3c.1 0 .2.1.4.1v.4h-3.5l-3.9-5.2v3.3c0 .6.1 1 .3 1.2.2.2.6.3 1.2.3v.4h-5.7v-.6zm6.5-5.8c.5-.3.7-1 .7-2 0-.6-.1-1.2-.3-1.5-.3-.6-.9-1-1.7-1-.4 0-.7.1-.9.2-.1.1-.2.3-.2.6v4.3c1.2-.2 2-.3 2.4-.6zM266.2 20.2c1.1 1.1 1.7 2.6 1.7 4.3 0 1.8-.6 3.2-1.7 4.3-1.1 1.1-2.5 1.6-4.2 1.6-1.8 0-3.2-.6-4.4-1.8-1.1-1.1-1.6-2.5-1.6-4.1 0-1.8.5-3.2 1.7-4.3 1.1-1.1 2.5-1.7 4.3-1.7 1.7.1 3.1.6 4.2 1.7zm-1.6 7.5c.3-.8.4-1.9.4-3.2 0-1.8-.3-3.1-.8-4-.5-.9-1.3-1.4-2.2-1.4-1.3 0-2.1.8-2.6 2.3-.2.8-.4 1.8-.4 3.1s.1 2.4.4 3.2c.5 1.5 1.3 2.2 2.6 2.2s2.1-.7 2.6-2.2zM275.8 18.8v.4c-.6 0-1.1.1-1.3.3s-.3.6-.3 1.2v5.6c0 .9.1 1.5.3 2 .4.9 1.1 1.3 2.1 1.3 1.3 0 2.2-.5 2.6-1.4.2-.5.4-1.3.4-2.2v-5.1c0-.6-.1-1-.3-1.2-.2-.2-.7-.4-1.3-.4v-.4h3.7v.4c-.5.1-.9.2-1.1.4-.2.1-.3.5-.3 1V26c0 1.4-.3 2.5-1 3.3-.7.8-1.8 1.2-3.2 1.2-1.9 0-3.2-.6-3.9-1.7-.4-.6-.6-1.4-.6-2.4v-5.6c0-.6-.1-1-.2-1.2-.2-.2-.5-.3-1.1-.3v-.4h5.5zM283.8 29.7c.5 0 .9-.2 1.1-.3.2-.2.3-.6.3-1.2v-7.4c0-.6-.1-1-.3-1.2-.2-.2-.6-.3-1.1-.3v-.4h5.4c1.4 0 2.5.2 3.3.7s1.1 1.3 1.1 2.4c0 .6-.1 1.1-.4 1.5-.3.5-.8.9-1.4 1.2-.5.2-1 .3-1.5.4-.5 0-1.3.1-2.3.1v3.1c0 .6.1 1 .3 1.2.2.2.6.3 1.2.3v.4h-5.6v-.5zm6.1-5.6c.5-.3.8-1.1.8-2.2 0-.8-.1-1.4-.4-1.8-.3-.5-.7-.7-1.5-.7-.3 0-.6 0-.7.1-.1.1-.2.2-.2.5v4.5c1 0 1.6-.2 2-.4zM210.2 21.7l-3.5-1.7c-2-1-2.5-1.5-2.5-2.8 0-1.6 1.3-2.3 2.6-2.3 2.8 0 4.3 2.8 4.7 4.4h.7v-3.6l-1.1-.9c-.1.1-.2.1-.5.1-.7 0-1.8-.8-3.7-.8-4.5 0-5.3 3.3-5.3 4.7 0 1.1 0 3.2 4.1 5.1l1.6.8c1.6.7 2.7 1.3 2.7 2.9 0 .3-.1 2.7-3 2.7-3 0-4.4-2.7-4.9-5.1h-.7v5.9h.7c.1-.4.2-.8.7-.8.7 0 1.8.8 4.1.8 4.4 0 5.9-2.9 5.9-5 0-2.6-1.8-4-2.6-4.4M149.9 15c.8 0 1.6.1 1.6 1.1 0 .5-.1.8-.2 1l-2.7 8.1-2.6-8c-.1-.5-.3-1-.3-1.3 0-.8.7-.8 1.7-.9v-.6h-7.5v.6c1.1 0 1.4.3 1.7.8l.8 2.3-2.8 7.3-2.8-8.6c-.1-.3-.2-.5-.2-.8 0-.9.7-.9 1.5-1v-.6h-7v.6c1 .1 1.2.4 1.6 1.5L138 31h.7l4.4-11.2h.2l4 11.2h.6l4.8-14.4c.3-.9.8-1.5 1.6-1.5v-.6h-4.4v.5zm13.4 14.9c-1.6 0-2-.3-2-1.3v-5.8c2.4 0 3.6.7 3.9 3.7h.6v-8.1h-.6c-.4 3-1.6 3.6-3.9 3.6v-5.6c0-1 .4-1.1 1.7-1.1 3.2 0 4.9.6 5.5 4h.6v-4.8h-13.8v.5c1.1.1 2.1.1 2.1 1.7v11.6c0 1.5-.7 1.6-2.1 1.7v.6h14l1-5h-.7c-1.5 3.7-3.9 4.3-6.3 4.3m17.4-8.2l-3.5-1.7c-2-1-2.5-1.5-2.5-2.8 0-1.6 1.3-2.3 2.6-2.3 2.8 0 4.3 2.8 4.7 4.4h.7v-5.2h-.7c-.1.5-.2.8-.8.8-.7 0-1.8-.8-3.7-.8-4.5 0-5.3 3.3-5.3 4.7 0 1.1 0 3.2 4.1 5.1l1.6.8c1.6.7 2.7 1.3 2.7 2.9 0 .3-.1 2.7-3 2.7-3 0-4.4-2.7-4.9-5.1h-.7v5.9h.7c.1-.4.2-.8.7-.8.7 0 1.8.8 4.1.8 4.4 0 5.9-2.9 5.9-5-.1-2.6-1.9-4-2.7-4.4m4.6-7.3l-.1 4.8h.7c.5-3.8 2.9-3.9 4.6-4v12.6c0 2-.6 2.1-2.3 2.2v.6h8.5V30c-1.8-.1-2.3-.2-2.3-2.2V15.2c1.7.1 4.1.2 4.6 4h.7v-4.8h-14.4zM162.4 33.4l5.9-.2c19.8.1 35.6.7 43.8 1.3.6 0 1.6.7-1.2.7h-32.1c-5.3.2-8.5.3-13.9.6-4.1.3-16 1.7-19.5 2.4-8.5 1.7-11.7 1.8-11.6-.1 0-.7 1.6-1.5 2.9-1.8 1.7-.5 3.5-.8 5.8-1.2 2.8-.4 4.9-.7 8.3-1 4.6-.4 7.1-.6 11.6-.7M206.1 4.5s.3-.4.1-.6l-.1-.1h-.2c-.4-.1-.8.1-.9.1-.1.1-.2.2-.2.4 0 .1.1.2.1.2.1 0 .8.7 1.2 0m6.6 11.3s-2.5-2.6-3-4.6c0 0-1-4.1.9-5.1 0 0 .9-.4 2.4.5 0 0-2.3-6.8-6.6-6.5 0 0-2.6.1-1.6 2.4 0 0-1.7.2-.6 2.2 0 0 .4-.7 1.2-1 0 0 .5-.2.5-.7 0 0 .2-1.6 1.3-1.4 0 0 1 .2 1.4 1.4 0 0 .2.8-.2 1.4l-2 1.9s-.9.7-.5 3c0 0 .4 2 1.7 3.9 0 0 2.1 2.7 3.7 4.2 0 0 1.5 1.5 1.8 2 0-.4-.6-2.7-.4-3.6M207.1 2.2c-.3 0-.5.2-.5.5 0 .2.2.5.5.5.2 0 .5-.2.5-.5s-.2-.5-.5-.5m6.2 5.1c-.4-.3-1.3-.9-2.1-.8-.4.1-.7.3-1 .7-.2.4-.4 1-.4 1.9 0 .4 0 .8.1 1.2.1.5.3 1.2.7 2 .4.8 1.2 2 2.5 3.4 0 0 2.6 3 5.8 4.8-.4-2-2.4-10.5-5.6-13.2m4.7 13.1c-1.2-.7-3.6-2.6-3.6-2.6 1 1.1 7.2 21.2 7.2 21.2.6 1.5.6.8.6.8.2-3.6-4.2-19.4-4.2-19.4"/></svg>